<svg xmlns="http://www.w3.org/2000/svg" width="241" height="43" viewBox="0 0 241 43">
    <g fill="none" fill-rule="evenodd">
        <path fill="#676B73" d="M234.683 20.487h-1.16v15.849h1.16v-8.664c.02-.597.07-1.11.153-1.543.08-.43.193-.821.336-1.17.142-.35.32-.669.534-.956.214-.288.463-.586.748-.895.712-.698 1.46-1.15 2.245-1.357.783-.205 1.481-.266 2.092-.185v-1.171c-.713-.02-1.4.057-2.062.23a6.755 6.755 0 0 0-1.802.757c-.54.328-.997.719-1.374 1.171a3.869 3.869 0 0 0-.779 1.45h-.091v-3.516zm-16.553 7.061a9.676 9.676 0 0 1 .49-2.405 6.346 6.346 0 0 1 1.133-2.05 5.613 5.613 0 0 1 1.807-1.418c.714-.36 1.541-.54 2.48-.54.878 0 1.659.175 2.343.523.684.35 1.265.818 1.746 1.404.48.586.841 1.264 1.086 2.034.245.772.388 1.589.429 2.452H218.13zm12.674 1.018c0-.082.006-.19.016-.324s.015-.252.015-.354a9.954 9.954 0 0 0-.443-3.007 7.508 7.508 0 0 0-1.298-2.466 6.122 6.122 0 0 0-2.122-1.68c-.846-.412-1.818-.618-2.917-.618-1.201 0-2.244.232-3.13.694a6.582 6.582 0 0 0-2.214 1.85c-.591.77-1.033 1.665-1.329 2.683a11.399 11.399 0 0 0-.443 3.191c0 1.152.143 2.226.428 3.222.285.997.718 1.86 1.298 2.59a6.176 6.176 0 0 0 2.168 1.727c.865.421 1.878.632 3.039.632 1.893 0 3.415-.493 4.566-1.48 1.15-.986 1.898-2.405 2.245-4.255h-1.161c-.348 1.48-.98 2.636-1.899 3.469-.918.833-2.164 1.248-3.736 1.248-.96 0-1.801-.184-2.526-.554a5.164 5.164 0 0 1-1.807-1.511 6.792 6.792 0 0 1-1.086-2.22 9.433 9.433 0 0 1-.368-2.652v-.185h12.704zm-28.981 7.77h1.16v-8.572c0-.966.127-1.855.382-2.668.254-.81.626-1.51 1.115-2.096a5.17 5.17 0 0 1 1.77-1.372c.693-.329 1.487-.493 2.383-.493 1.058 0 1.888.196 2.49.586.6.39 1.047.858 1.343 1.403.295.545.474 1.115.535 1.71.06.597.09 1.091.09 1.481v10.021h1.161v-9.805c0-.329-.01-.714-.03-1.156a8.38 8.38 0 0 0-.184-1.372 5.838 5.838 0 0 0-.504-1.404 4.299 4.299 0 0 0-.962-1.248c-.407-.37-.931-.668-1.572-.895-.642-.225-1.42-.339-2.336-.339-.611 0-1.212.083-1.803.247a5.78 5.78 0 0 0-2.946 1.927 5.083 5.083 0 0 0-.87 1.588h-.062v-3.392h-1.16v15.849zm-2.138-15.849h-3.42v-4.933h-1.16v4.933h-2.902v1.018h2.902v11.07c-.042.904.065 1.614.32 2.127.254.514.595.9 1.023 1.156.428.257.921.412 1.481.463.56.05 1.135.056 1.726.015v-1.018c-.55.02-1.034.011-1.451-.03-.417-.041-.774-.16-1.068-.355a1.723 1.723 0 0 1-.658-.848c-.142-.37-.213-.874-.213-1.51v-11.07h3.42v-1.018zm-15.421 0h-1.161v15.849h1.16v-8.664c.02-.597.072-1.11.153-1.543.081-.43.194-.821.336-1.17.142-.35.32-.669.535-.956.213-.288.462-.586.748-.895.712-.698 1.46-1.15 2.244-1.357.784-.205 1.481-.266 2.093-.185v-1.171c-.714-.02-1.4.057-2.062.23a6.744 6.744 0 0 0-1.801.757 5.46 5.46 0 0 0-1.375 1.171 3.863 3.863 0 0 0-.78 1.45h-.09v-3.516zm-7.238 9.806c0 .206-.057.6-.168 1.187-.113.586-.372 1.192-.779 1.82-.408.626-.998 1.181-1.772 1.664-.773.483-1.822.724-3.145.724-1.283 0-2.29-.282-3.023-.847-.733-.565-1.1-1.434-1.1-2.606 0-.74.143-1.342.428-1.804a3.173 3.173 0 0 1 1.115-1.094 4.964 4.964 0 0 1 1.542-.57c.57-.113 1.14-.2 1.71-.263l1.954-.185a16.026 16.026 0 0 0 1.94-.277c.58-.124 1.012-.36 1.298-.71v2.96zm0 3.73c0 .33.025.633.076.91.05.277.148.52.29.725.142.206.351.37.626.493.275.124.646.185 1.115.185.325 0 .641-.041.947-.123v-.987a5.514 5.514 0 0 1-.855.092c-.265 0-.47-.055-.611-.17a.923.923 0 0 1-.306-.446 2.284 2.284 0 0 1-.106-.617c-.011-.226-.016-.452-.016-.678v-9.22c0-1.212-.433-2.194-1.298-2.944-.866-.75-2.244-1.126-4.138-1.126-1.893 0-3.354.438-4.382 1.31-1.029.875-1.584 2.185-1.665 3.932h1.16c.082-1.418.555-2.477 1.421-3.176.865-.698 2-1.048 3.406-1.048.793 0 1.465.082 2.015.247.55.164.997.39 1.344.678.345.288.6.617.763.986.162.37.244.771.244 1.203 0 .555-.03 1.017-.092 1.388-.06.37-.213.673-.458.91-.244.235-.606.421-1.083.554-.479.134-1.136.231-1.97.293l-1.803.154a18.21 18.21 0 0 0-1.969.308 5.932 5.932 0 0 0-1.863.725c-.56.34-1.023.802-1.39 1.388-.366.585-.55 1.341-.55 2.266 0 1.521.459 2.647 1.375 3.376.916.73 2.209 1.095 3.878 1.095.753 0 1.446-.092 2.077-.277a6.252 6.252 0 0 0 1.695-.771c.5-.329.921-.704 1.267-1.125.347-.422.611-.869.794-1.343h.062v.834zm-22.974 1.064a4.794 4.794 0 0 1-1.776-1.604c-.439-.667-.75-1.437-.934-2.312a13.252 13.252 0 0 1-.275-2.728c0-.946.102-1.855.306-2.729.204-.874.536-1.65.995-2.329a5.197 5.197 0 0 1 1.792-1.634c.735-.41 1.623-.616 2.664-.616 1.06 0 1.964.21 2.71.632a5.372 5.372 0 0 1 1.821 1.664c.47.69.817 1.471 1.042 2.344.224.874.336 1.763.336 2.668 0 .986-.117 1.917-.352 2.79a6.89 6.89 0 0 1-1.072 2.297 5.25 5.25 0 0 1-1.837 1.573c-.745.39-1.628.585-2.648.585-1.103 0-2.026-.2-2.772-.601zm-3.015-14.6h-1.13V42.01h1.13v-8.973h.06c.47 1.295 1.216 2.23 2.235 2.806 1.02.575 2.184.863 3.49.863 1.204 0 2.25-.206 3.138-.616a5.994 5.994 0 0 0 2.204-1.712c.581-.73 1.015-1.598 1.3-2.605.287-1.008.43-2.117.43-3.33 0-1.11-.143-2.17-.428-3.177-.285-1.006-.718-1.89-1.298-2.651a6.362 6.362 0 0 0-2.199-1.82c-.885-.451-1.929-.678-3.13-.678-.855 0-1.614.134-2.275.401a6.093 6.093 0 0 0-1.695 1.002c-.469.4-.845.837-1.13 1.311a6.064 6.064 0 0 0-.61 1.294h-.092v-3.638zm-9.743 13.49c.631-.36 1.16-.832 1.589-1.418a6.266 6.266 0 0 0 .962-2.02 8.63 8.63 0 0 0 .32-2.344c0-.78-.091-1.561-.275-2.343a6.815 6.815 0 0 0-.885-2.128 4.83 4.83 0 0 0-1.573-1.54c-.641-.391-1.42-.587-2.336-.587-.916 0-1.7.19-2.352.57a5.037 5.037 0 0 0-1.618 1.496 6.305 6.305 0 0 0-.932 2.112c-.194.792-.29 1.598-.29 2.42 0 .802.102 1.584.305 2.344.204.761.52 1.434.947 2.02a4.91 4.91 0 0 0 1.619 1.419c.65.36 1.425.538 2.32.538.835 0 1.569-.179 2.2-.538zm4.414 4.24c-.255.945-.657 1.747-1.207 2.405-.55.658-1.267 1.161-2.153 1.51-.885.35-1.97.526-3.252.526a9.664 9.664 0 0 1-2.321-.279 6.544 6.544 0 0 1-2.031-.863c-.6-.39-1.1-.89-1.496-1.496-.398-.606-.627-1.33-.688-2.173h1.925c.101.596.3 1.094.595 1.495s.651.725 1.069.971c.417.248.88.427 1.39.54.508.113 1.027.17 1.557.17 1.791 0 3.084-.514 3.878-1.541.794-1.029 1.191-2.51 1.191-4.441v-2.158h-.06a5.665 5.665 0 0 1-1.97 2.373c-.866.597-1.879.895-3.04.895-1.262 0-2.34-.21-3.236-.632a6.015 6.015 0 0 1-2.214-1.742c-.58-.74-1.004-1.608-1.268-2.606a12.4 12.4 0 0 1-.397-3.191c0-1.09.157-2.122.474-3.099a7.701 7.701 0 0 1 1.374-2.559 6.418 6.418 0 0 1 2.23-1.727c.885-.42 1.898-.632 3.038-.632.59 0 1.145.083 1.664.247.52.164.993.396 1.42.694.428.298.81.642 1.146 1.033.335.39.595.801.778 1.233h.061v-2.744h1.924V35.04c0 1.172-.127 2.23-.381 3.176zm-27.44-17.791v2.744h.061c.367-.966 1.018-1.743 1.955-2.328a5.702 5.702 0 0 1 3.084-.879c1.1 0 2.02.144 2.764.432.743.288 1.339.694 1.787 1.218.448.524.763 1.166.947 1.927.183.76.275 1.614.275 2.559v10.237h-1.925v-9.928c0-.68-.06-1.312-.183-1.897a4.035 4.035 0 0 0-.641-1.526 3.117 3.117 0 0 0-1.237-1.018c-.52-.246-1.166-.37-1.94-.37-.773 0-1.46.14-2.06.416-.602.278-1.11.658-1.528 1.141a5.28 5.28 0 0 0-.977 1.727 7.088 7.088 0 0 0-.382 2.174v9.281h-1.924v-15.91h1.924zm-9.024.216a6.964 6.964 0 0 1 2.336 1.818c.631.761 1.11 1.65 1.436 2.668a10.63 10.63 0 0 1 .488 3.253c0 1.151-.163 2.235-.488 3.253a7.907 7.907 0 0 1-1.436 2.667 6.792 6.792 0 0 1-2.336 1.804c-.926.442-1.99.663-3.191.663-1.202 0-2.265-.221-3.192-.663a6.788 6.788 0 0 1-2.336-1.804 7.88 7.88 0 0 1-1.435-2.667 10.594 10.594 0 0 1-.49-3.253c0-1.15.164-2.235.49-3.253a7.89 7.89 0 0 1 1.435-2.668 6.96 6.96 0 0 1 2.336-1.818c.927-.452 1.99-.679 3.192-.679 1.2 0 2.265.227 3.19.679zm-5.604 1.541a5.32 5.32 0 0 0-1.725 1.541 7.026 7.026 0 0 0-1.039 2.174 8.93 8.93 0 0 0 0 4.965c.234.812.58 1.537 1.039 2.174a5.304 5.304 0 0 0 1.725 1.541c.692.392 1.496.586 2.413.586.916 0 1.72-.194 2.412-.586a5.31 5.31 0 0 0 1.726-1.54 7.028 7.028 0 0 0 1.038-2.175 8.93 8.93 0 0 0 0-4.965 7.047 7.047 0 0 0-1.038-2.174 5.328 5.328 0 0 0-1.726-1.54c-.692-.391-1.496-.587-2.412-.587-.917 0-1.721.196-2.413.586zm-9.864 14.153H95.7V14.32h-1.924v22.016zm-5.863-8.695c-.123.227-.357.39-.703.493a7.136 7.136 0 0 1-.916.216c-.815.144-1.655.273-2.52.386-.865.112-1.654.282-2.366.508-.713.227-1.298.55-1.756.97-.458.423-.687 1.024-.687 1.805 0 .494.096.93.29 1.311.193.38.452.71.778.987s.703.488 1.13.632c.428.144.865.215 1.313.215.733 0 1.436-.112 2.108-.339a5.173 5.173 0 0 0 1.756-.987 4.792 4.792 0 0 0 1.19-1.572c.296-.617.443-1.315.443-2.097v-2.528h-.06zm-9.62-4.749a4.536 4.536 0 0 1 1.328-1.665 5.6 5.6 0 0 1 1.97-.955c.753-.206 1.588-.309 2.504-.309.692 0 1.384.067 2.077.2a5.003 5.003 0 0 1 1.862.756c.55.37.998.89 1.344 1.557.346.669.52 1.537.52 2.606v8.448c0 .782.376 1.172 1.13 1.172.223 0 .427-.041.61-.124v1.635a5.707 5.707 0 0 1-1.252.123c-.489 0-.88-.066-1.176-.2a1.576 1.576 0 0 1-.687-.57 2.15 2.15 0 0 1-.32-.88 7.582 7.582 0 0 1-.077-1.125h-.061a13.01 13.01 0 0 1-1.054 1.372 5.233 5.233 0 0 1-1.19 1.002 5.479 5.479 0 0 1-1.497.617c-.56.144-1.227.216-2 .216-.733 0-1.42-.088-2.062-.262a4.611 4.611 0 0 1-1.68-.833 3.974 3.974 0 0 1-1.13-1.45c-.274-.585-.411-1.278-.411-2.08 0-1.11.244-1.978.732-2.606.49-.627 1.135-1.104 1.94-1.434.804-.328 1.71-.56 2.718-.693 1.007-.134 2.03-.262 3.069-.386.407-.04.763-.093 1.069-.154.305-.062.56-.17.763-.324.203-.154.361-.365.473-.632.112-.267.168-.616.168-1.049 0-.658-.106-1.196-.32-1.618a2.556 2.556 0 0 0-.886-1.002 3.546 3.546 0 0 0-1.313-.509 8.79 8.79 0 0 0-1.603-.14c-1.222 0-2.22.294-2.993.88-.774.586-1.18 1.527-1.221 2.822h-1.924c.06-.926.254-1.727.58-2.406zm-17.774 9.034c.367.762.87 1.368 1.511 1.82.642.453 1.4.776 2.276.971.875.196 1.812.294 2.81.294.57 0 1.19-.082 1.862-.247a6.459 6.459 0 0 0 1.879-.786 4.814 4.814 0 0 0 1.45-1.388c.387-.565.58-1.25.58-2.05 0-.618-.137-1.152-.412-1.604a3.807 3.807 0 0 0-1.069-1.141 6.32 6.32 0 0 0-1.45-.756 14.046 14.046 0 0 0-1.558-.477l-4.855-1.203a14.54 14.54 0 0 1-1.848-.616 5.256 5.256 0 0 1-1.573-.987 4.692 4.692 0 0 1-1.084-1.511c-.275-.596-.413-1.326-.413-2.19 0-.534.102-1.16.306-1.88.203-.72.585-1.398 1.145-2.035.56-.638 1.329-1.177 2.306-1.62.977-.44 2.23-.662 3.756-.662 1.08 0 2.107.144 3.085.432.977.288 1.832.719 2.565 1.295a6.414 6.414 0 0 1 1.756 2.143c.438.853.657 1.845.657 2.975h-2.077c-.041-.843-.229-1.577-.565-2.205a4.913 4.913 0 0 0-1.313-1.572 5.731 5.731 0 0 0-1.863-.956 7.505 7.505 0 0 0-2.214-.324c-.713 0-1.4.077-2.062.232-.662.153-1.242.4-1.74.74-.5.339-.901.786-1.207 1.34-.305.556-.458 1.245-.458 2.067 0 .514.086.961.26 1.34.173.382.412.706.717.972.306.268.657.483 1.054.648.397.165.82.298 1.268.4l5.313 1.327c.774.205 1.502.457 2.184.755a7.23 7.23 0 0 1 1.802 1.11c.519.442.926.982 1.221 1.618.295.638.443 1.409.443 2.314 0 .246-.026.575-.076.986a5.035 5.035 0 0 1-.367 1.31c-.193.463-.468.93-.824 1.404-.357.473-.846.899-1.466 1.279-.622.381-1.39.69-2.306.925-.916.236-2.015.355-3.298.355s-2.474-.15-3.573-.447c-1.1-.298-2.036-.755-2.81-1.372-.774-.617-1.37-1.408-1.786-2.375-.418-.966-.596-2.127-.535-3.484H60c-.02 1.13.153 2.076.519 2.836z"/>
        <path fill="#3B1060" d="M54.102 0c3.227 0 6.205 1.018 8.66 2.757C52.005 4.765 43.85 14.284 43.85 25.722c0 .2.01.41.01.618a15.23 15.23 0 0 1-4.81-11.138C39.05 6.802 45.79 0 54.103 0zM9.431 1.858c26.166 0 20.673 25.352 41.93 31.315A24.488 24.488 0 0 1 38.21 36.98c-9.886 0-15.28-7.223-26.036-5.923 9.222-6.234 15.645 3.505 25.69 2.547C22.712 24.243 19.357 3.456 2.306 3.456c-.782 0-1.554.05-2.306.13A26.399 26.399 0 0 1 9.43 1.858z"/>
    </g>
</svg>
