<?xml version="1.0" encoding="UTF-8"?>
<svg id="Layer_1" data-name="Layer 1" xmlns="http://www.w3.org/2000/svg" version="1.1" viewBox="0 0 241 43">
  <defs>
    <style>
      .cls-1 {
        fill: #fff;
        fill-rule: evenodd;
        stroke-width: 0px;
      }
    </style>
  </defs>
  <path class="cls-1" d="M234.7,20.5h-1.2v15.8h1.2v-8.7c0-.6,0-1.1.2-1.5,0-.4.2-.8.3-1.2.1-.4.3-.7.5-1,.2-.3.5-.6.7-.9.7-.7,1.5-1.1,2.2-1.4.8-.2,1.5-.3,2.1-.2v-1.2c-.7,0-1.4,0-2.1.2-.6.2-1.2.4-1.8.8-.5.3-1,.7-1.4,1.2-.4.4-.6.9-.8,1.5h0v-3.5h0ZM218.1,27.5c0-.8.2-1.6.5-2.4.2-.7.6-1.4,1.1-2,.5-.6,1.1-1.1,1.8-1.4.7-.4,1.5-.5,2.5-.5s1.7.2,2.3.5c.7.4,1.3.8,1.7,1.4.5.6.8,1.3,1.1,2,.2.8.4,1.6.4,2.5h-11.5ZM230.8,28.6c0,0,0-.2,0-.3s0-.3,0-.4c0-1-.1-2-.4-3-.3-.9-.7-1.7-1.3-2.5-.6-.7-1.3-1.3-2.1-1.7-.8-.4-1.8-.6-2.9-.6s-2.2.2-3.1.7c-.9.4-1.6,1.1-2.2,1.9-.6.8-1,1.7-1.3,2.7-.3,1-.4,2.1-.4,3.2,0,1.2.1,2.2.4,3.2.3,1,.7,1.9,1.3,2.6.6.7,1.3,1.3,2.2,1.7.9.4,1.9.6,3,.6,1.9,0,3.4-.5,4.6-1.5,1.1-1,1.9-2.4,2.2-4.3h-1.2c-.3,1.5-1,2.6-1.9,3.5-.9.8-2.2,1.2-3.7,1.2s-1.8-.2-2.5-.6c-.7-.4-1.3-.9-1.8-1.5-.5-.7-.9-1.4-1.1-2.2-.2-.9-.4-1.8-.4-2.7v-.2h12.7ZM201.8,36.3h1.2v-8.6c0-1,.1-1.9.4-2.7.3-.8.6-1.5,1.1-2.1.5-.6,1.1-1,1.8-1.4.7-.3,1.5-.5,2.4-.5s1.9.2,2.5.6c.6.4,1,.9,1.3,1.4.3.5.5,1.1.5,1.7,0,.6,0,1.1,0,1.5v10h1.2v-9.8c0-.3,0-.7,0-1.2,0-.5,0-.9-.2-1.4-.1-.5-.3-1-.5-1.4-.2-.5-.6-.9-1-1.2-.4-.4-.9-.7-1.6-.9-.6-.2-1.4-.3-2.3-.3s-1.2,0-1.8.2c-1.2.3-2.2,1-2.9,1.9-.4.5-.7,1-.9,1.6h0v-3.4h-1.2v15.8h0ZM199.7,20.5h-3.4v-4.9h-1.2v4.9h-2.9v1h2.9v11.1c0,.9,0,1.6.3,2.1.3.5.6.9,1,1.2.4.3.9.4,1.5.5.6,0,1.1,0,1.7,0v-1c-.6,0-1,0-1.5,0s-.8-.2-1.1-.4c-.3-.2-.5-.5-.7-.8-.1-.4-.2-.9-.2-1.5v-11.1h3.4s0-1,0-1ZM184.3,20.5h-1.2v15.8h1.2v-8.7c0-.6,0-1.1.2-1.5,0-.4.2-.8.3-1.2.1-.4.3-.7.5-1,.2-.3.5-.6.7-.9.7-.7,1.5-1.1,2.2-1.4.8-.2,1.5-.3,2.1-.2v-1.2c-.7,0-1.4,0-2.1.2-.6.2-1.2.4-1.8.8-.5.3-1,.7-1.4,1.2-.4.4-.6.9-.8,1.5h0v-3.5h0ZM177,30.3c0,.2,0,.6-.2,1.2-.1.6-.4,1.2-.8,1.8-.4.6-1,1.2-1.8,1.7-.8.5-1.8.7-3.1.7s-2.3-.3-3-.8-1.1-1.4-1.1-2.6.1-1.3.4-1.8c.3-.5.7-.8,1.1-1.1.5-.3,1-.5,1.5-.6.6-.1,1.1-.2,1.7-.3l2-.2c.7,0,1.3-.1,1.9-.3.6-.1,1-.4,1.3-.7v3h0ZM177,34c0,.3,0,.6,0,.9,0,.3.1.5.3.7.1.2.4.4.6.5.3.1.6.2,1.1.2s.6,0,.9-.1v-1c-.3,0-.6,0-.9,0-.3,0-.5,0-.6-.2-.1-.1-.3-.3-.3-.4,0-.2,0-.4-.1-.6,0-.2,0-.5,0-.7v-9.2c0-1.2-.4-2.2-1.3-2.9-.9-.8-2.2-1.1-4.1-1.1s-3.4.4-4.4,1.3c-1,.9-1.6,2.2-1.7,3.9h1.2c0-1.4.6-2.5,1.4-3.2.9-.7,2-1,3.4-1s1.5,0,2,.2c.6.2,1,.4,1.3.7.3.3.6.6.8,1,.2.4.2.8.2,1.2s0,1,0,1.4c0,.4-.2.7-.5.9-.2.2-.6.4-1.1.6-.5.1-1.1.2-2,.3l-1.8.2c-.7,0-1.3.2-2,.3-.7.1-1.3.4-1.9.7-.6.3-1,.8-1.4,1.4-.4.6-.6,1.3-.6,2.3,0,1.5.5,2.6,1.4,3.4.9.7,2.2,1.1,3.9,1.1s1.4,0,2.1-.3c.6-.2,1.2-.4,1.7-.8.5-.3.9-.7,1.3-1.1.3-.4.6-.9.8-1.3h0v.8h0ZM154.1,35.1c-.7-.4-1.3-.9-1.8-1.6-.4-.7-.8-1.4-.9-2.3-.2-.9-.3-1.8-.3-2.7,0-.9.1-1.9.3-2.7s.5-1.6,1-2.3c.5-.7,1.1-1.2,1.8-1.6.7-.4,1.6-.6,2.7-.6s2,.2,2.7.6c.7.4,1.4,1,1.8,1.7.5.7.8,1.5,1,2.3.2.9.3,1.8.3,2.7s-.1,1.9-.4,2.8c-.2.8-.6,1.6-1.1,2.3-.5.7-1.1,1.2-1.8,1.6-.7.4-1.6.6-2.6.6s-2-.2-2.8-.6ZM151,20.5h-1.1v21.5h1.1v-9h0c.5,1.3,1.2,2.2,2.2,2.8,1,.6,2.2.9,3.5.9s2.2-.2,3.1-.6c.9-.4,1.6-1,2.2-1.7.6-.7,1-1.6,1.3-2.6.3-1,.4-2.1.4-3.3s-.1-2.2-.4-3.2c-.3-1-.7-1.9-1.3-2.7-.6-.8-1.3-1.4-2.2-1.8-.9-.5-1.9-.7-3.1-.7s-1.6.1-2.3.4c-.6.2-1.2.6-1.7,1-.5.4-.8.8-1.1,1.3-.3.4-.5.8-.6,1.3h0v-3.6h0ZM141.3,34c.6-.4,1.2-.8,1.6-1.4.4-.6.8-1.3,1-2,.2-.8.3-1.6.3-2.3,0-.8,0-1.6-.3-2.3-.2-.8-.5-1.5-.9-2.1-.4-.6-.9-1.2-1.6-1.5-.6-.4-1.4-.6-2.3-.6s-1.7.2-2.4.6c-.6.4-1.2.9-1.6,1.5-.4.6-.8,1.4-.9,2.1-.2.8-.3,1.6-.3,2.4s.1,1.6.3,2.3c.2.8.5,1.4.9,2,.4.6,1,1.1,1.6,1.4.6.4,1.4.5,2.3.5s1.6-.2,2.2-.5h0ZM145.7,38.2c-.3.9-.7,1.7-1.2,2.4-.6.7-1.3,1.2-2.2,1.5-.9.3-2,.5-3.3.5-.8,0-1.6,0-2.3-.3-.7-.2-1.4-.5-2-.9-.6-.4-1.1-.9-1.5-1.5-.4-.6-.6-1.3-.7-2.2h1.9c.1.6.3,1.1.6,1.5s.7.7,1.1,1c.4.2.9.4,1.4.5.5.1,1,.2,1.6.2,1.8,0,3.1-.5,3.9-1.5.8-1,1.2-2.5,1.2-4.4v-2.2h0c-.4,1-1.1,1.8-2,2.4-.9.6-1.9.9-3,.9s-2.3-.2-3.2-.6c-.9-.4-1.6-1-2.2-1.7-.6-.7-1-1.6-1.3-2.6-.3-1-.4-2.1-.4-3.2,0-1.1.2-2.1.5-3.1.3-.9.8-1.8,1.4-2.6.6-.7,1.4-1.3,2.2-1.7.9-.4,1.9-.6,3-.6s1.1,0,1.7.2c.5.2,1,.4,1.4.7.4.3.8.6,1.1,1,.3.4.6.8.8,1.2h0v-2.7h1.9v14.6c0,1.2-.1,2.2-.4,3.2h0ZM118.3,20.4v2.7h0c.4-1,1-1.7,2-2.3.9-.6,2-.9,3.1-.9,1.1,0,2,.1,2.8.4.7.3,1.3.7,1.8,1.2.4.5.8,1.2.9,1.9.2.8.3,1.6.3,2.6v10.2h-1.9v-9.9c0-.7,0-1.3-.2-1.9-.1-.5-.3-1.1-.6-1.5-.3-.4-.7-.8-1.2-1-.5-.2-1.2-.4-1.9-.4s-1.5.1-2.1.4c-.6.3-1.1.7-1.5,1.1-.4.5-.8,1.1-1,1.7-.2.7-.4,1.4-.4,2.2v9.3h-1.9v-15.9s1.9,0,1.9,0ZM109.2,20.6c.9.4,1.7,1.1,2.3,1.8.6.8,1.1,1.6,1.4,2.7.3,1.1.5,2.1.5,3.3,0,1.2-.2,2.2-.5,3.3-.3,1-.8,1.9-1.4,2.7-.6.8-1.4,1.4-2.3,1.8-.9.4-2,.7-3.2.7s-2.3-.2-3.2-.7c-.9-.4-1.7-1-2.3-1.8-.6-.8-1.1-1.7-1.4-2.7-.3-1.1-.5-2.1-.5-3.3,0-1.1.2-2.2.5-3.3.3-1,.8-1.9,1.4-2.7.6-.8,1.4-1.4,2.3-1.8.9-.5,2-.7,3.2-.7s2.3.2,3.2.7h0ZM103.6,22.2c-.7.4-1.3.9-1.7,1.5-.5.7-.8,1.4-1,2.2-.5,1.6-.5,3.3,0,5,.2.8.6,1.5,1,2.2.5.6,1,1.2,1.7,1.5.7.4,1.5.6,2.4.6s1.7-.2,2.4-.6c.7-.4,1.3-.9,1.7-1.5.5-.7.8-1.4,1-2.2.5-1.6.5-3.3,0-5-.2-.8-.6-1.5-1-2.2-.5-.6-1-1.2-1.7-1.5-.7-.4-1.5-.6-2.4-.6s-1.7.2-2.4.6ZM93.8,36.3h1.9V14.3h-1.9s0,22,0,22ZM87.9,27.6c-.1.2-.4.4-.7.5-.3,0-.6.2-.9.2-.8.1-1.7.3-2.5.4-.9.1-1.7.3-2.4.5-.7.2-1.3.5-1.8,1-.5.4-.7,1-.7,1.8s0,.9.3,1.3c.2.4.5.7.8,1s.7.5,1.1.6c.4.1.9.2,1.3.2.7,0,1.4-.1,2.1-.3.6-.2,1.2-.5,1.8-1,.5-.4.9-1,1.2-1.6.3-.6.4-1.3.4-2.1v-2.5h0ZM78.3,22.9c.3-.7.8-1.2,1.3-1.7.6-.4,1.3-.8,2-1,.8-.2,1.6-.3,2.5-.3s1.4,0,2.1.2c.7.1,1.3.4,1.9.8.6.4,1,.9,1.3,1.6.3.7.5,1.5.5,2.6v8.4c0,.8.4,1.2,1.1,1.2s.4,0,.6-.1v1.6c-.4,0-.8.1-1.3.1-.5,0-.9,0-1.2-.2-.3-.1-.5-.3-.7-.6-.2-.3-.3-.6-.3-.9,0-.4,0-.7,0-1.1h0c-.3.5-.7.9-1.1,1.4-.3.4-.7.7-1.2,1-.5.3-1,.5-1.5.6-.6.1-1.2.2-2,.2s-1.4,0-2.1-.3c-.6-.2-1.2-.4-1.7-.8-.5-.4-.9-.9-1.1-1.5-.3-.6-.4-1.3-.4-2.1s.2-2,.7-2.6c.5-.6,1.1-1.1,1.9-1.4.8-.3,1.7-.6,2.7-.7,1-.1,2-.3,3.1-.4.4,0,.8,0,1.1-.2.3,0,.6-.2.8-.3s.4-.4.5-.6.2-.6.2-1c0-.7-.1-1.2-.3-1.6-.2-.4-.5-.8-.9-1-.4-.3-.8-.4-1.3-.5-.5,0-1.1-.1-1.6-.1-1.2,0-2.2.3-3,.9-.8.6-1.2,1.5-1.2,2.8h-1.9c0-.9.3-1.7.6-2.4ZM60.5,31.9c.4.8.9,1.4,1.5,1.8.6.5,1.4.8,2.3,1,.9.2,1.8.3,2.8.3s1.2,0,1.9-.2c.7-.2,1.3-.4,1.9-.8.6-.4,1.1-.8,1.4-1.4.4-.6.6-1.2.6-2s-.1-1.2-.4-1.6c-.3-.5-.6-.8-1.1-1.1-.4-.3-.9-.6-1.4-.8-.5-.2-1-.3-1.6-.5l-4.9-1.2c-.6-.2-1.2-.4-1.8-.6-.6-.2-1.1-.6-1.6-1-.5-.4-.8-.9-1.1-1.5-.3-.6-.4-1.3-.4-2.2s.1-1.2.3-1.9c.2-.7.6-1.4,1.1-2,.6-.6,1.3-1.2,2.3-1.6,1-.4,2.2-.7,3.8-.7s2.1.1,3.1.4c1,.3,1.8.7,2.6,1.3.7.6,1.3,1.3,1.8,2.1.4.9.7,1.8.7,3h-2.1c0-.8-.2-1.6-.6-2.2-.3-.6-.8-1.1-1.3-1.6-.6-.4-1.2-.8-1.9-1-.7-.2-1.5-.3-2.2-.3-.7,0-1.4,0-2.1.2-.7.2-1.2.4-1.7.7-.5.3-.9.8-1.2,1.3-.3.6-.5,1.2-.5,2.1s0,1,.3,1.3c.2.4.4.7.7,1,.3.3.7.5,1.1.6s.8.3,1.3.4l5.3,1.3c.8.2,1.5.5,2.2.8.7.3,1.3.7,1.8,1.1.5.4.9,1,1.2,1.6.3.6.4,1.4.4,2.3s0,.6,0,1c0,.5-.2.9-.4,1.3-.2.5-.5.9-.8,1.4-.4.5-.8.9-1.5,1.3-.6.4-1.4.7-2.3.9-.9.2-2,.4-3.3.4s-2.5-.2-3.6-.4c-1.1-.3-2-.8-2.8-1.4-.8-.6-1.4-1.4-1.8-2.4-.4-1-.6-2.1-.5-3.5h2.1c0,1.1.2,2.1.5,2.8h0Z"/>
  <path class="cls-1" d="M54.1,0c3.2,0,6.2,1,8.7,2.8-10.8,2-18.9,11.5-18.9,23s0,.4,0,.6c-3.1-2.9-4.8-6.9-4.8-11.1,0-8.4,6.7-15.2,15.1-15.2h0ZM9.4,1.9c26.2,0,20.7,25.4,41.9,31.3-3.9,2.5-8.5,3.8-13.2,3.8-9.9,0-15.3-7.2-26-5.9,9.2-6.2,15.6,3.5,25.7,2.5C22.7,24.2,19.4,3.5,2.3,3.5s-1.6,0-2.3.1c3-1.1,6.2-1.7,9.4-1.7h0Z"/>
</svg>