<?xml version="1.0" encoding="UTF-8"?>
<svg id="Layer_1" data-name="Layer 1" xmlns="http://www.w3.org/2000/svg" version="1.1" viewBox="0 0 63.5 47.7">
  <defs>
    <style>
      .cls-1 {
        fill: #fff;
        fill-rule: evenodd;
        stroke-width: 0px;
      }
    </style>
  </defs>
  <path class="cls-1" d="M54.1,4.7c3.2,0,6.2,1,8.7,2.8-10.8,2-18.9,11.5-18.9,23s0,.4,0,.6c-3.1-2.9-4.8-6.9-4.8-11.1,0-8.4,6.7-15.2,15.1-15.2h0ZM9.4,6.6c26.2,0,20.7,25.4,41.9,31.3-3.9,2.5-8.5,3.8-13.2,3.8-9.9,0-15.3-7.2-26-5.9,9.2-6.2,15.6,3.5,25.7,2.5C22.7,29,19.4,8.2,2.3,8.2s-1.6,0-2.3.1c3-1.1,6.2-1.7,9.4-1.7h0Z"/>
</svg>